<?xml version="1.0" encoding="UTF-8"?>
<svg version="1.1" xmlns="http://www.w3.org/2000/svg" width="320" height="320">
<path d="M0 0 C0.93783829 -0.00571014 1.87567657 -0.01142029 2.8419342 -0.01730347 C3.86900482 -0.01842133 4.89607544 -0.01953918 5.95426941 -0.02069092 C7.57906975 -0.02813828 7.57906975 -0.02813828 9.23669434 -0.03573608 C12.82769908 -0.05036643 16.41865965 -0.05716118 20.00968933 -0.06268311 C22.50209556 -0.06843383 24.99450177 -0.07419157 27.48690796 -0.07995605 C32.04792072 -0.08912439 36.60892079 -0.0954237 41.16994172 -0.09845281 C47.2094484 -0.10248618 53.24879961 -0.11476168 59.28825378 -0.14080811 C65.76913655 -0.16832863 72.24988584 -0.18120014 78.73082542 -0.18312836 C81.20157163 -0.18615649 83.67231695 -0.19419036 86.14303017 -0.20731354 C89.59979846 -0.22436344 93.0560699 -0.22249607 96.51286316 -0.21600342 C98.04436005 -0.22982559 98.04436005 -0.22982559 99.60679626 -0.243927 C106.23749681 -0.20490399 110.69524103 0.62957217 115.74015808 5.26544189 C118.03700825 9.17859403 118.62719833 12.62285066 118.42765808 17.14044189 C116.81710704 21.88261997 114.55310194 24.35576729 110.42765808 27.14044189 C107.5797377 28.08974869 105.80869045 28.27010916 102.85531616 28.28088379 C101.44855873 28.28944901 101.44855873 28.28944901 100.01338196 28.29818726 C98.98631134 28.29930511 97.95924072 28.30042297 96.90104675 28.30157471 C95.27624641 28.30902206 95.27624641 28.30902206 93.61862183 28.31661987 C90.02761708 28.33125022 86.43665651 28.33804497 82.84562683 28.34356689 C80.35322061 28.34931762 77.8608144 28.35507536 75.3684082 28.36083984 C70.80739544 28.37000818 66.24639537 28.37630749 61.68537444 28.3793366 C55.64586776 28.38336997 49.60651655 28.39564547 43.56706238 28.42169189 C37.08617961 28.44921241 30.60543033 28.46208393 24.12449074 28.46401215 C21.65374453 28.46704027 19.18299921 28.47507415 16.712286 28.48819733 C13.2555177 28.50524723 9.79924626 28.50337986 6.342453 28.49688721 C4.81095612 28.51070938 4.81095612 28.51070938 3.2485199 28.52481079 C-3.38218065 28.48578778 -7.83992487 27.65131161 -12.88484192 23.01544189 C-15.18169209 19.10228976 -15.77188217 15.65803313 -15.57234192 11.14044189 C-13.96179088 6.39826382 -11.69778578 3.9251165 -7.57234192 1.14044189 C-4.72442154 0.1911351 -2.95337429 0.01077463 0 0 Z " fill="#000000" transform="translate(183.5723419189453,225.85955810546875)"/>
<path d="M0 0 C0.93783829 -0.00571014 1.87567657 -0.01142029 2.8419342 -0.01730347 C3.86900482 -0.01842133 4.89607544 -0.01953918 5.95426941 -0.02069092 C7.57906975 -0.02813828 7.57906975 -0.02813828 9.23669434 -0.03573608 C12.82769908 -0.05036643 16.41865965 -0.05716118 20.00968933 -0.06268311 C22.50209556 -0.06843383 24.99450177 -0.07419157 27.48690796 -0.07995605 C32.04792072 -0.08912439 36.60892079 -0.0954237 41.16994172 -0.09845281 C47.2094484 -0.10248618 53.24879961 -0.11476168 59.28825378 -0.14080811 C65.76913655 -0.16832863 72.24988584 -0.18120014 78.73082542 -0.18312836 C81.20157163 -0.18615649 83.67231695 -0.19419036 86.14303017 -0.20731354 C89.59979846 -0.22436344 93.0560699 -0.22249607 96.51286316 -0.21600342 C98.04436005 -0.22982559 98.04436005 -0.22982559 99.60679626 -0.243927 C106.23749681 -0.20490399 110.69524103 0.62957217 115.74015808 5.26544189 C118.03700825 9.17859403 118.62719833 12.62285066 118.42765808 17.14044189 C116.81710704 21.88261997 114.55310194 24.35576729 110.42765808 27.14044189 C107.5797377 28.08974869 105.80869045 28.27010916 102.85531616 28.28088379 C101.44855873 28.28944901 101.44855873 28.28944901 100.01338196 28.29818726 C98.98631134 28.29930511 97.95924072 28.30042297 96.90104675 28.30157471 C95.27624641 28.30902206 95.27624641 28.30902206 93.61862183 28.31661987 C90.02761708 28.33125022 86.43665651 28.33804497 82.84562683 28.34356689 C80.35322061 28.34931762 77.8608144 28.35507536 75.3684082 28.36083984 C70.80739544 28.37000818 66.24639537 28.37630749 61.68537444 28.3793366 C55.64586776 28.38336997 49.60651655 28.39564547 43.56706238 28.42169189 C37.08617961 28.44921241 30.60543033 28.46208393 24.12449074 28.46401215 C21.65374453 28.46704027 19.18299921 28.47507415 16.712286 28.48819733 C13.2555177 28.50524723 9.79924626 28.50337986 6.342453 28.49688721 C4.81095612 28.51070938 4.81095612 28.51070938 3.2485199 28.52481079 C-3.38218065 28.48578778 -7.83992487 27.65131161 -12.88484192 23.01544189 C-15.18169209 19.10228976 -15.77188217 15.65803313 -15.57234192 11.14044189 C-13.96179088 6.39826382 -11.69778578 3.9251165 -7.57234192 1.14044189 C-4.72442154 0.1911351 -2.95337429 0.01077463 0 0 Z " fill="#000000" transform="translate(41.57234191894531,225.85955810546875)"/>
<path d="M0 0 C0.93783829 -0.00571014 1.87567657 -0.01142029 2.8419342 -0.01730347 C3.86900482 -0.01842133 4.89607544 -0.01953918 5.95426941 -0.02069092 C7.57906975 -0.02813828 7.57906975 -0.02813828 9.23669434 -0.03573608 C12.82769908 -0.05036643 16.41865965 -0.05716118 20.00968933 -0.06268311 C22.50209556 -0.06843383 24.99450177 -0.07419157 27.48690796 -0.07995605 C32.04792072 -0.08912439 36.60892079 -0.0954237 41.16994172 -0.09845281 C47.2094484 -0.10248618 53.24879961 -0.11476168 59.28825378 -0.14080811 C65.76913655 -0.16832863 72.24988584 -0.18120014 78.73082542 -0.18312836 C81.20157163 -0.18615649 83.67231695 -0.19419036 86.14303017 -0.20731354 C89.59979846 -0.22436344 93.0560699 -0.22249607 96.51286316 -0.21600342 C98.04436005 -0.22982559 98.04436005 -0.22982559 99.60679626 -0.243927 C106.23749681 -0.20490399 110.69524103 0.62957217 115.74015808 5.26544189 C118.03700825 9.17859403 118.62719833 12.62285066 118.42765808 17.14044189 C116.81710704 21.88261997 114.55310194 24.35576729 110.42765808 27.14044189 C107.5797377 28.08974869 105.80869045 28.27010916 102.85531616 28.28088379 C101.44855873 28.28944901 101.44855873 28.28944901 100.01338196 28.29818726 C98.98631134 28.29930511 97.95924072 28.30042297 96.90104675 28.30157471 C95.27624641 28.30902206 95.27624641 28.30902206 93.61862183 28.31661987 C90.02761708 28.33125022 86.43665651 28.33804497 82.84562683 28.34356689 C80.35322061 28.34931762 77.8608144 28.35507536 75.3684082 28.36083984 C70.80739544 28.37000818 66.24639537 28.37630749 61.68537444 28.3793366 C55.64586776 28.38336997 49.60651655 28.39564547 43.56706238 28.42169189 C37.08617961 28.44921241 30.60543033 28.46208393 24.12449074 28.46401215 C21.65374453 28.46704027 19.18299921 28.47507415 16.712286 28.48819733 C13.2555177 28.50524723 9.79924626 28.50337986 6.342453 28.49688721 C4.81095612 28.51070938 4.81095612 28.51070938 3.2485199 28.52481079 C-3.38218065 28.48578778 -7.83992487 27.65131161 -12.88484192 23.01544189 C-15.18169209 19.10228976 -15.77188217 15.65803313 -15.57234192 11.14044189 C-13.96179088 6.39826382 -11.69778578 3.9251165 -7.57234192 1.14044189 C-4.72442154 0.1911351 -2.95337429 0.01077463 0 0 Z " fill="#000000" transform="translate(183.5723419189453,65.85955810546875)"/>
<path d="M0 0 C0.93783829 -0.00571014 1.87567657 -0.01142029 2.8419342 -0.01730347 C3.86900482 -0.01842133 4.89607544 -0.01953918 5.95426941 -0.02069092 C7.57906975 -0.02813828 7.57906975 -0.02813828 9.23669434 -0.03573608 C12.82769908 -0.05036643 16.41865965 -0.05716118 20.00968933 -0.06268311 C22.50209556 -0.06843383 24.99450177 -0.07419157 27.48690796 -0.07995605 C32.04792072 -0.08912439 36.60892079 -0.0954237 41.16994172 -0.09845281 C47.2094484 -0.10248618 53.24879961 -0.11476168 59.28825378 -0.14080811 C65.76913655 -0.16832863 72.24988584 -0.18120014 78.73082542 -0.18312836 C81.20157163 -0.18615649 83.67231695 -0.19419036 86.14303017 -0.20731354 C89.59979846 -0.22436344 93.0560699 -0.22249607 96.51286316 -0.21600342 C98.04436005 -0.22982559 98.04436005 -0.22982559 99.60679626 -0.243927 C106.23749681 -0.20490399 110.69524103 0.62957217 115.74015808 5.26544189 C118.03700825 9.17859403 118.62719833 12.62285066 118.42765808 17.14044189 C116.81710704 21.88261997 114.55310194 24.35576729 110.42765808 27.14044189 C107.5797377 28.08974869 105.80869045 28.27010916 102.85531616 28.28088379 C101.44855873 28.28944901 101.44855873 28.28944901 100.01338196 28.29818726 C98.98631134 28.29930511 97.95924072 28.30042297 96.90104675 28.30157471 C95.27624641 28.30902206 95.27624641 28.30902206 93.61862183 28.31661987 C90.02761708 28.33125022 86.43665651 28.33804497 82.84562683 28.34356689 C80.35322061 28.34931762 77.8608144 28.35507536 75.3684082 28.36083984 C70.80739544 28.37000818 66.24639537 28.37630749 61.68537444 28.3793366 C55.64586776 28.38336997 49.60651655 28.39564547 43.56706238 28.42169189 C37.08617961 28.44921241 30.60543033 28.46208393 24.12449074 28.46401215 C21.65374453 28.46704027 19.18299921 28.47507415 16.712286 28.48819733 C13.2555177 28.50524723 9.79924626 28.50337986 6.342453 28.49688721 C4.81095612 28.51070938 4.81095612 28.51070938 3.2485199 28.52481079 C-3.38218065 28.48578778 -7.83992487 27.65131161 -12.88484192 23.01544189 C-15.18169209 19.10228976 -15.77188217 15.65803313 -15.57234192 11.14044189 C-13.96179088 6.39826382 -11.69778578 3.9251165 -7.57234192 1.14044189 C-4.72442154 0.1911351 -2.95337429 0.01077463 0 0 Z " fill="#000000" transform="translate(41.57234191894531,65.85955810546875)"/>
<path d="M0 0 C1.65230873 -0.01029488 1.65230873 -0.01029488 3.33799744 -0.02079773 C6.9729406 -0.03907299 10.60745247 -0.03522703 14.24243164 -0.02954102 C16.77299642 -0.03410241 19.30355997 -0.03940785 21.8341217 -0.04542542 C27.13589088 -0.05435796 32.43750339 -0.05216599 37.73925781 -0.04199219 C43.85603409 -0.03051333 49.97237179 -0.04458645 56.08909029 -0.07138866 C61.98803042 -0.0962628 67.88683487 -0.09871593 73.78582954 -0.0922718 C76.2892384 -0.09211852 78.79265568 -0.09816901 81.29603386 -0.11056328 C84.79794715 -0.1254587 88.29889785 -0.1148055 91.80078125 -0.09765625 C92.83217224 -0.10732422 93.86356323 -0.11699219 94.9262085 -0.12695312 C101.14077776 -0.0633027 104.91268702 0.69783005 109.96508789 4.40405273 C112.95227795 8.74029636 113.52303777 12.19652053 112.96508789 17.40405273 C111.48590095 21.5950824 109.70773632 24.17969019 105.92443848 26.57798767 C101.74622382 28.33952906 97.19288144 27.9559198 92.73071289 27.92163086 C91.04673401 27.93214478 91.04673401 27.93214478 89.32873535 27.94287109 C85.62393336 27.96045218 81.91989744 27.94882707 78.21508789 27.93530273 C75.63728692 27.93799759 73.05948694 27.94187996 70.48168945 27.94689941 C65.08151626 27.95279466 59.68163009 27.944613 54.28149414 27.92553711 C48.04766906 27.90376984 41.81436736 27.9108219 35.58055496 27.93284273 C29.5715744 27.95321575 23.56284888 27.95101647 17.55383301 27.9393158 C15.00215583 27.93664825 12.45046528 27.93991922 9.89880371 27.94923401 C6.33199732 27.95939723 2.76619458 27.94389974 -0.80053711 27.92163086 C-2.38106873 27.93377625 -2.38106873 27.93377625 -3.99353027 27.94616699 C-9.9797043 27.87695981 -13.49648599 27.43206649 -18.03491211 23.40405273 C-20.95294504 19.02700333 -21.6753952 15.61941502 -21.03491211 10.40405273 C-19.6164413 6.51728245 -18.1319364 4.12274712 -14.63328552 1.83067322 C-9.68901944 -0.12954337 -5.27258583 -0.02296785 0 0 Z " fill="#000000" transform="translate(189.034912109375,172.595947265625)"/>
<path d="M0 0 C1.65230873 -0.01029488 1.65230873 -0.01029488 3.33799744 -0.02079773 C6.9729406 -0.03907299 10.60745247 -0.03522703 14.24243164 -0.02954102 C16.77299642 -0.03410241 19.30355997 -0.03940785 21.8341217 -0.04542542 C27.13589088 -0.05435796 32.43750339 -0.05216599 37.73925781 -0.04199219 C43.85603409 -0.03051333 49.97237179 -0.04458645 56.08909029 -0.07138866 C61.98803042 -0.0962628 67.88683487 -0.09871593 73.78582954 -0.0922718 C76.2892384 -0.09211852 78.79265568 -0.09816901 81.29603386 -0.11056328 C84.79794715 -0.1254587 88.29889785 -0.1148055 91.80078125 -0.09765625 C92.83217224 -0.10732422 93.86356323 -0.11699219 94.9262085 -0.12695312 C101.14077776 -0.0633027 104.91268702 0.69783005 109.96508789 4.40405273 C112.95227795 8.74029636 113.52303777 12.19652053 112.96508789 17.40405273 C111.48590095 21.5950824 109.70773632 24.17969019 105.92443848 26.57798767 C101.74622382 28.33952906 97.19288144 27.9559198 92.73071289 27.92163086 C91.04673401 27.93214478 91.04673401 27.93214478 89.32873535 27.94287109 C85.62393336 27.96045218 81.91989744 27.94882707 78.21508789 27.93530273 C75.63728692 27.93799759 73.05948694 27.94187996 70.48168945 27.94689941 C65.08151626 27.95279466 59.68163009 27.944613 54.28149414 27.92553711 C48.04766906 27.90376984 41.81436736 27.9108219 35.58055496 27.93284273 C29.5715744 27.95321575 23.56284888 27.95101647 17.55383301 27.9393158 C15.00215583 27.93664825 12.45046528 27.93991922 9.89880371 27.94923401 C6.33199732 27.95939723 2.76619458 27.94389974 -0.80053711 27.92163086 C-2.38106873 27.93377625 -2.38106873 27.93377625 -3.99353027 27.94616699 C-9.9797043 27.87695981 -13.49648599 27.43206649 -18.03491211 23.40405273 C-20.95294504 19.02700333 -21.6753952 15.61941502 -21.03491211 10.40405273 C-19.6164413 6.51728245 -18.1319364 4.12274712 -14.63328552 1.83067322 C-9.68901944 -0.12954337 -5.27258583 -0.02296785 0 0 Z " fill="#000000" transform="translate(47.034912109375,172.595947265625)"/>
<path d="M0 0 C1.68397888 -0.01051392 1.68397888 -0.01051392 3.40197754 -0.02124023 C7.10677953 -0.03882132 10.81081546 -0.02719621 14.515625 -0.01367188 C17.09342597 -0.01636673 19.67122595 -0.0202491 22.24902344 -0.02526855 C27.64919663 -0.0311638 33.0490828 -0.02298214 38.44921875 -0.00390625 C44.68304383 0.01786102 50.91634553 0.01080896 57.15015793 -0.01121187 C63.15913849 -0.03158489 69.16786401 -0.02938561 75.17687988 -0.01768494 C77.72855706 -0.01501739 80.28024761 -0.01828836 82.83190918 -0.02760315 C86.39871557 -0.03776637 89.96451831 -0.02226888 93.53125 0 C95.11178162 -0.01214539 95.11178162 -0.01214539 96.72424316 -0.02453613 C102.71041719 0.04467105 106.22719888 0.48956437 110.765625 4.51757812 C113.68365793 8.89462753 114.40610809 12.30221584 113.765625 17.51757812 C112.34715419 21.40434841 110.86264929 23.79888374 107.36399841 26.09095764 C102.41973233 28.05117423 98.00329872 27.94459871 92.73071289 27.92163086 C91.07840416 27.93192574 91.07840416 27.93192574 89.39271545 27.94242859 C85.75777229 27.96070385 82.12326043 27.95685789 78.48828125 27.95117188 C75.95771647 27.95573327 73.42715293 27.96103871 70.89659119 27.96705627 C65.59482201 27.97598882 60.29320951 27.97379685 54.99145508 27.96362305 C48.8746788 27.95214419 42.7583411 27.96621731 36.6416226 27.99301952 C30.74268247 28.01789366 24.84387802 28.02034679 18.94488335 28.01390266 C16.44147449 28.01374938 13.93805721 28.01979987 11.43467903 28.03219414 C7.93276574 28.04708956 4.43181504 28.03643636 0.92993164 28.01928711 C-0.61715485 28.03378906 -0.61715485 28.03378906 -2.19549561 28.04858398 C-8.41006487 27.98493356 -12.18197413 27.22380081 -17.234375 23.51757812 C-20.22156505 19.1813345 -20.79232488 15.72511033 -20.234375 10.51757812 C-18.75518806 6.32654846 -16.97702343 3.74194066 -13.19372559 1.34364319 C-9.01551093 -0.4178982 -4.46216855 -0.03428894 0 0 Z " fill="#000000" transform="translate(188.234375,119.482421875)"/>
<path d="M0 0 C1.68397888 -0.01051392 1.68397888 -0.01051392 3.40197754 -0.02124023 C7.10677953 -0.03882132 10.81081546 -0.02719621 14.515625 -0.01367188 C17.09342597 -0.01636673 19.67122595 -0.0202491 22.24902344 -0.02526855 C27.64919663 -0.0311638 33.0490828 -0.02298214 38.44921875 -0.00390625 C44.68304383 0.01786102 50.91634553 0.01080896 57.15015793 -0.01121187 C63.15913849 -0.03158489 69.16786401 -0.02938561 75.17687988 -0.01768494 C77.72855706 -0.01501739 80.28024761 -0.01828836 82.83190918 -0.02760315 C86.39871557 -0.03776637 89.96451831 -0.02226888 93.53125 0 C95.11178162 -0.01214539 95.11178162 -0.01214539 96.72424316 -0.02453613 C102.71041719 0.04467105 106.22719888 0.48956437 110.765625 4.51757812 C113.68365793 8.89462753 114.40610809 12.30221584 113.765625 17.51757812 C112.34715419 21.40434841 110.86264929 23.79888374 107.36399841 26.09095764 C102.41973233 28.05117423 98.00329872 27.94459871 92.73071289 27.92163086 C91.07840416 27.93192574 91.07840416 27.93192574 89.39271545 27.94242859 C85.75777229 27.96070385 82.12326043 27.95685789 78.48828125 27.95117188 C75.95771647 27.95573327 73.42715293 27.96103871 70.89659119 27.96705627 C65.59482201 27.97598882 60.29320951 27.97379685 54.99145508 27.96362305 C48.8746788 27.95214419 42.7583411 27.96621731 36.6416226 27.99301952 C30.74268247 28.01789366 24.84387802 28.02034679 18.94488335 28.01390266 C16.44147449 28.01374938 13.93805721 28.01979987 11.43467903 28.03219414 C7.93276574 28.04708956 4.43181504 28.03643636 0.92993164 28.01928711 C-0.61715485 28.03378906 -0.61715485 28.03378906 -2.19549561 28.04858398 C-8.41006487 27.98493356 -12.18197413 27.22380081 -17.234375 23.51757812 C-20.22156505 19.1813345 -20.79232488 15.72511033 -20.234375 10.51757812 C-18.75518806 6.32654846 -16.97702343 3.74194066 -13.19372559 1.34364319 C-9.01551093 -0.4178982 -4.46216855 -0.03428894 0 0 Z " fill="#000000" transform="translate(46.234375,119.482421875)"/>
</svg>
